<svg xmlns="http://www.w3.org/2000/svg" viewBox="0 0 1200 1200" role="img" aria-label="Camera off">
  <rect width="1200" height="1200" fill="#eadb80"/>
  <g transform="translate(280 410)" stroke="#45381f" stroke-width="10" stroke-linecap="round" stroke-linejoin="round">
    <path d="M92 106h92l22 31h403c28 0 50 22 50 50v221c0 28-22 50-50 50H78c-28 0-50-22-50-50V187c0-28 22-50 50-50h14z" fill="#b7a17d"/>
    <path d="M28 219h631v-32c0-28-22-50-50-50H206l-22-31H92v31H78c-28 0-50 22-50 50z" fill="#e8e5d7"/>
    <rect x="53" y="233" width="594" height="184" fill="#b49d78" stroke="none"/>
    <circle cx="396" cy="289" r="138" fill="#e9e5d7"/>
    <circle cx="396" cy="289" r="104" fill="#5a461f"/>
    <circle cx="396" cy="289" r="76" fill="#3e3019"/>
    <path d="M344 252c20-30 47-45 80-47" fill="none" stroke="#fff" stroke-width="15"/>
    <path d="M456 315c-13 28-35 47-66 56" fill="none" stroke="#fff" stroke-width="15"/>
    <circle cx="141" cy="202" r="23" fill="#fff9e7"/>
    <path d="M585 106h78v31h-78z" fill="#e8e5d7"/>
    <path d="M598 106v31M622 106v31M646 106v31" fill="none"/>
    <path d="M119 311c8-58 49-57 56 0v76c-7 57-49 58-56 0z" fill="#d7d2be"/>
    <path d="M18 458h638" fill="none"/>
  </g>
  <g transform="translate(470 338)" stroke="#45381f" stroke-width="9" stroke-linecap="round" stroke-linejoin="round">
    <path d="M69 18c26-20 62-6 72 25 30-20 68-2 73 32 6 42-30 72-71 61-16 31-59 35-81 8-34 12-67-12-65-48 2-25 19-41 41-45 2-14 11-26 31-33z" fill="#fffdf0"/>
    <circle cx="79" cy="84" r="5" fill="#45381f"/>
    <circle cx="123" cy="84" r="5" fill="#45381f"/>
    <path d="M92 105c12 9 24 9 36 0" fill="none"/>
    <path d="M211 84c28-14 53 1 42 26-7 15-26 20-43 13" fill="#f2bfd3"/>
  </g>
  <g transform="translate(274 672)" stroke="#45381f" stroke-width="9" stroke-linecap="round" stroke-linejoin="round">
    <path d="M49 18c26-20 62-6 72 25 30-20 68-2 73 32 6 42-30 72-71 61-16 31-59 35-81 8-34 12-67-12-65-48 2-25 19-41 41-45 2-14 11-26 31-33z" fill="#fffdf0"/>
    <circle cx="59" cy="84" r="5" fill="#45381f"/>
    <circle cx="103" cy="84" r="5" fill="#45381f"/>
    <path d="M78 102l10 11 10-11" fill="none"/>
    <path d="M194 87c21 2 34 18 28 37" fill="#f2bfd3"/>
  </g>
  <g transform="translate(897 584)" stroke="#45381f" stroke-width="9" stroke-linecap="round" stroke-linejoin="round">
    <path d="M26 24c22-15 51-4 58 22 24-17 55-2 59 26 5 35-25 60-59 51-14 26-49 29-68 7-28 10-56-10-54-40 2-21 16-34 34-38 2-12 10-22 30-28z" fill="#fffdf0"/>
    <circle cx="48" cy="82" r="5" fill="#45381f"/>
    <circle cx="91" cy="82" r="5" fill="#45381f"/>
    <path d="M62 106c10 7 20 7 30 0" fill="none"/>
  </g>
</svg>
